<?xml version="1.0" standalone="no"?>
<!DOCTYPE svg PUBLIC "-//W3C//DTD SVG 20010904//EN"
 "http://www.w3.org/TR/2001/REC-SVG-20010904/DTD/svg10.dtd">
<svg version="1.0" xmlns="http://www.w3.org/2000/svg"
 width="465.000000pt" height="109.000000pt" viewBox="0 0 465.000000 109.000000"
 preserveAspectRatio="xMidYMid meet">

<g transform="translate(0.000000,109.000000) scale(0.100000,-0.100000)"
fill="#000000" stroke="none">
<path d="M3080 780 c-17 -33 -26 -41 -42 -37 -19 5 -20 3 -14 -36 4 -23 9 -52
13 -64 7 -31 -17 -30 -47 2 -17 18 -26 22 -31 13 -4 -7 -24 -11 -43 -10 -20 2
-36 1 -36 -1 0 -2 5 -19 11 -37 9 -26 9 -34 -2 -41 -11 -7 -1 -22 45 -63 38
-34 57 -58 54 -68 -5 -12 13 -14 113 -14 112 1 119 2 119 21 1 12 23 38 55 64
42 34 52 48 44 58 -7 7 -9 27 -5 49 7 35 7 36 -24 32 -19 -2 -34 3 -41 12 -8
13 -13 11 -30 -12 -11 -16 -28 -28 -36 -28 -13 0 -14 9 -9 50 4 28 9 57 13 66
4 12 0 14 -19 9 -22 -6 -28 -1 -46 35 l-21 42 -21 -42z"/>
<path d="M244 752 c-37 -30 -44 -57 -44 -177 0 -162 19 -195 115 -195 38 0 52
5 76 29 16 16 29 36 29 44 0 9 3 22 6 31 5 12 -1 16 -24 16 -23 0 -34 -6 -44
-27 -20 -41 -41 -50 -72 -30 -25 17 -26 20 -26 132 0 110 1 115 24 130 30 20
62 7 76 -31 7 -18 17 -24 41 -24 24 0 30 3 25 16 -3 9 -6 22 -6 31 0 8 -13 28
-29 44 -25 24 -38 29 -78 29 -30 0 -56 -7 -69 -18z"/>
<path d="M1410 698 c0 -68 -1 -70 -18 -55 -21 19 -54 22 -82 7 -40 -21 -54
-167 -22 -230 14 -28 24 -36 50 -38 22 -2 41 3 53 14 17 16 19 16 19 1 0 -12
9 -17 30 -17 l30 0 0 195 0 195 -30 0 -30 0 0 -72z m-12 -100 c7 -7 12 -40 12
-78 0 -68 -10 -90 -42 -90 -25 0 -38 31 -38 90 0 28 5 60 10 71 12 21 40 25
58 7z"/>
<path d="M1540 741 c0 -28 3 -31 31 -31 27 0 30 3 27 28 -2 21 -9 28 -30 30
-25 3 -28 0 -28 -27z"/>
<path d="M2417 763 c-3 -4 -24 -71 -47 -148 -23 -77 -48 -159 -56 -183 -18
-55 -19 -52 15 -52 25 0 31 6 41 35 11 35 12 35 70 35 58 0 59 0 70 -35 10
-29 16 -35 41 -35 16 0 29 1 29 3 0 1 -26 88 -58 192 -50 164 -61 190 -79 193
-12 2 -23 0 -26 -5z m46 -177 c9 -35 17 -67 17 -70 0 -3 -18 -6 -40 -6 -22 0
-40 2 -40 5 0 19 34 135 39 135 4 0 15 -29 24 -64z"/>
<path d="M2630 575 l0 -195 30 0 30 0 0 195 0 195 -30 0 -30 0 0 -195z"/>
<path d="M3538 755 c-31 -17 -48 -44 -48 -74 0 -33 53 -29 68 5 22 48 82 15
69 -38 -4 -14 -36 -70 -72 -124 -39 -61 -65 -110 -65 -126 l0 -28 100 0 100 0
0 30 0 30 -60 0 -61 0 38 58 c88 136 103 197 60 247 -28 33 -90 42 -129 20z"/>
<path d="M3804 761 c-47 -20 -54 -46 -54 -196 0 -123 3 -143 20 -165 16 -22
27 -25 79 -25 93 0 95 5 99 184 3 143 3 149 -20 175 -25 30 -87 43 -124 27z
m74 -63 c13 -13 18 -222 6 -252 -8 -21 -60 -21 -68 0 -3 9 -6 66 -6 128 0 114
6 136 40 136 9 0 21 -5 28 -12z"/>
<path d="M4061 757 c-26 -16 -50 -53 -51 -79 0 -26 57 -25 65 1 8 26 42 36 61
20 27 -22 10 -71 -60 -175 -42 -62 -66 -109 -66 -126 l0 -28 100 0 100 0 0 30
0 30 -60 0 -61 0 39 58 c87 127 103 196 59 247 -27 32 -90 42 -126 22z"/>
<path d="M4309 755 c-23 -12 -49 -59 -49 -86 0 -5 15 -9 33 -9 24 0 35 6 42
23 6 12 19 22 30 22 17 0 20 -8 23 -47 3 -44 1 -48 -22 -54 -32 -8 -38 -54 -8
-54 27 0 42 -20 42 -56 0 -50 -9 -64 -41 -64 -22 0 -30 6 -35 25 -5 19 -13 25
-35 25 -26 0 -29 -4 -29 -30 0 -50 38 -80 100 -80 74 0 100 28 100 110 0 46
-5 65 -19 79 -17 17 -18 20 -2 35 25 26 22 119 -5 146 -27 27 -91 35 -125 15z"/>
<path d="M513 634 l-26 -26 23 -13 c19 -10 26 -10 38 1 29 29 72 10 72 -33 0
-21 -5 -23 -49 -23 -42 0 -53 -4 -70 -26 -25 -32 -27 -81 -5 -112 11 -17 25
-22 58 -22 23 0 47 5 54 12 9 9 12 9 12 0 0 -7 13 -12 30 -12 l30 0 0 111 c0
109 0 111 -29 140 -40 40 -100 41 -138 3z m105 -166 c-3 -30 -6 -33 -40 -36
-38 -3 -43 2 -38 38 3 20 19 30 53 30 26 0 28 -3 25 -32z"/>
<path d="M750 520 l0 -140 30 0 30 0 0 104 c0 117 10 138 55 118 24 -11 25
-15 25 -117 l0 -105 31 0 31 0 -4 119 c-2 100 -6 122 -22 140 -23 25 -78 28
-97 5 -11 -14 -13 -14 -21 0 -5 9 -20 16 -33 16 l-25 0 0 -140z"/>
<path d="M1043 634 l-26 -26 24 -13 c20 -11 27 -11 40 1 31 28 69 10 69 -33 0
-21 -5 -23 -49 -23 -42 0 -53 -4 -70 -26 -25 -32 -27 -81 -5 -112 11 -17 25
-22 58 -22 23 0 47 5 54 12 9 9 12 9 12 0 0 -7 13 -12 30 -12 l30 0 0 109 c0
103 -1 111 -26 140 -22 26 -33 31 -70 31 -35 0 -51 -6 -71 -26z m105 -166 c-3
-30 -6 -33 -40 -36 -38 -3 -43 2 -38 38 3 20 19 30 53 30 26 0 28 -3 25 -32z"/>
<path d="M1540 521 l0 -141 30 0 31 0 -3 138 -3 137 -27 3 -28 3 0 -140z"/>
<path d="M1705 648 c-20 -12 -35 -28 -35 -40 0 -13 41 -19 55 -8 31 26 86 -7
72 -44 -5 -11 -19 -16 -52 -16 -60 0 -85 -24 -85 -83 0 -30 6 -49 18 -60 22
-20 92 -23 110 -5 9 9 12 9 12 0 0 -7 11 -12 25 -12 l25 0 0 115 c0 110 -1
117 -25 140 -27 27 -84 33 -120 13z m90 -183 c0 -28 -2 -30 -40 -30 -30 0 -41
4 -43 18 -6 28 18 48 52 45 27 -3 31 -7 31 -33z"/>
<path d="M1930 520 l0 -140 31 0 31 0 -7 75 c-9 96 -1 142 27 151 16 5 27 0
40 -16 14 -18 18 -40 18 -116 l0 -94 30 0 30 0 0 88 c-1 103 -12 162 -36 179
-24 17 -69 16 -87 -2 -13 -13 -16 -13 -21 0 -3 8 -17 15 -31 15 l-25 0 0 -140z"/>
<path d="M3102 320 c0 -14 2 -19 5 -12 2 6 2 18 0 25 -3 6 -5 1 -5 -13z"/>
<path d="M0 10 c0 -7 782 -10 2325 -10 1543 0 2325 3 2325 10 0 7 -782 10
-2325 10 -1543 0 -2325 -3 -2325 -10z"/>
</g>
</svg>
