<?xml version="1.0" standalone="no"?>
<!DOCTYPE svg PUBLIC "-//W3C//DTD SVG 20010904//EN"
 "http://www.w3.org/TR/2001/REC-SVG-20010904/DTD/svg10.dtd">
<svg version="1.0" xmlns="http://www.w3.org/2000/svg"
 width="1587.000000pt" height="1591.000000pt" viewBox="0 0 1587.000000 1591.000000"
 preserveAspectRatio="xMidYMid meet">

<g transform="translate(0.000000,1591.000000) scale(0.100000,-0.100000)"
fill="#000000" stroke="none">
<path d="M7779 15646 c-4 -4 -107 -11 -230 -17 -331 -15 -519 -34 -804 -84
-44 -8 -96 -16 -115 -19 -124 -18 -616 -131 -725 -166 -16 -5 -106 -33 -200
-61 -93 -28 -186 -57 -205 -64 -19 -8 -105 -39 -190 -70 -85 -32 -168 -63
-185 -70 -16 -8 -84 -36 -150 -64 -180 -75 -487 -221 -610 -291 -22 -12 -71
-39 -110 -60 -302 -161 -811 -505 -1102 -742 -29 -24 -78 -63 -110 -88 -31
-25 -89 -74 -128 -110 -38 -36 -101 -93 -140 -125 -94 -80 -422 -411 -500
-505 -34 -41 -73 -84 -85 -95 -13 -11 -48 -51 -78 -90 -31 -38 -59 -72 -64
-75 -27 -20 -337 -432 -450 -600 -110 -164 -268 -418 -333 -535 -137 -249
-226 -423 -310 -610 -55 -123 -72 -163 -112 -260 -91 -224 -202 -540 -253
-715 -12 -41 -27 -95 -35 -120 -65 -226 -142 -571 -180 -805 -9 -55 -20 -125
-25 -155 -8 -50 -25 -190 -50 -405 -19 -161 -25 -348 -25 -740 1 -426 22 -815
53 -990 6 -33 18 -114 27 -180 9 -66 21 -133 26 -149 5 -16 9 -40 9 -54 0 -14
6 -53 14 -86 8 -34 19 -88 26 -121 18 -89 35 -165 70 -305 18 -69 35 -141 39
-160 5 -19 15 -57 24 -85 189 -598 300 -882 507 -1300 267 -539 521 -934 955
-1480 206 -259 623 -689 880 -906 33 -28 85 -72 115 -99 30 -27 74 -62 97 -79
22 -16 44 -35 48 -41 6 -10 291 -223 432 -323 102 -73 383 -252 480 -308 357
-203 490 -271 798 -408 77 -34 149 -67 160 -71 61 -28 369 -143 485 -183 208
-70 531 -163 664 -192 39 -8 100 -22 136 -30 115 -26 323 -67 380 -75 78 -10
197 -29 253 -40 27 -6 70 -10 95 -10 26 0 67 -5 92 -11 89 -21 323 -32 780
-36 591 -6 847 11 1325 88 173 29 198 33 420 79 77 16 371 92 490 127 805 233
1579 603 2266 1085 169 118 176 123 419 313 36 28 87 71 115 96 27 25 61 53
74 62 92 62 510 468 702 682 189 210 403 474 531 653 311 437 552 850 773
1327 133 285 298 730 391 1050 33 113 115 437 133 528 126 618 171 1057 171
1652 0 322 -6 452 -32 695 -6 58 -14 141 -18 185 -8 83 -23 196 -40 303 -27
167 -33 204 -52 297 -11 55 -24 118 -29 141 -33 167 -121 495 -194 724 -190
598 -492 1249 -813 1750 -40 63 -233 350 -265 395 -94 131 -143 195 -226 298
-53 65 -118 147 -146 181 -89 113 -185 215 -440 471 -259 259 -396 388 -495
465 -32 25 -90 72 -130 105 -561 464 -1313 899 -2050 1188 -223 88 -672 235
-790 260 -14 3 -106 25 -205 50 -99 24 -211 50 -250 57 -38 6 -97 18 -130 25
-61 14 -207 38 -325 55 -36 5 -101 14 -145 20 -119 17 -259 29 -460 40 -254
13 -709 24 -716 16z m796 -284 c186 -14 358 -33 391 -43 17 -5 46 -9 65 -9 19
0 75 -7 124 -16 182 -31 461 -85 500 -96 22 -6 58 -15 80 -19 22 -4 67 -15
100 -24 33 -9 76 -20 95 -25 186 -43 759 -236 907 -306 18 -8 50 -21 70 -28
112 -40 570 -268 774 -385 249 -144 232 -133 453 -280 225 -150 198 -131 369
-261 76 -58 153 -115 170 -128 18 -13 52 -42 77 -66 25 -23 63 -55 85 -71 22
-16 51 -40 65 -55 14 -14 77 -71 140 -127 127 -111 453 -439 515 -518 22 -27
64 -78 95 -112 87 -97 145 -164 186 -218 21 -28 58 -76 83 -109 275 -353 541
-776 743 -1181 117 -234 131 -263 268 -580 5 -11 33 -85 63 -165 188 -499 343
-1111 401 -1585 9 -71 21 -155 26 -186 6 -30 10 -89 10 -130 1 -41 7 -103 15
-139 11 -52 14 -172 15 -581 0 -315 -4 -537 -10 -572 -6 -30 -15 -109 -20
-174 -20 -251 -84 -666 -135 -873 -8 -30 -26 -107 -41 -170 -88 -381 -278
-936 -444 -1295 -117 -254 -299 -603 -383 -732 -15 -24 -27 -45 -27 -47 0 -8
-173 -276 -246 -381 -108 -155 -133 -190 -214 -295 -174 -225 -225 -285 -445
-528 -200 -220 -232 -253 -325 -338 -42 -38 -118 -108 -170 -155 -239 -218
-494 -417 -845 -661 -67 -46 -237 -154 -305 -194 -30 -17 -107 -62 -170 -99
-142 -83 -504 -265 -665 -335 -66 -28 -138 -60 -160 -70 -259 -116 -915 -324
-1167 -370 -27 -5 -52 -11 -57 -14 -5 -3 -78 -19 -163 -36 -141 -28 -217 -40
-418 -70 -41 -6 -103 -15 -136 -20 -34 -6 -83 -10 -109 -10 -26 0 -91 -6 -144
-14 -107 -16 -411 -30 -656 -30 -213 0 -648 19 -664 28 -7 5 -65 12 -129 17
-188 13 -543 67 -727 109 -22 5 -74 16 -115 25 -1054 230 -2090 719 -2966
1403 -92 72 -208 165 -214 172 -3 3 -48 42 -100 86 -198 166 -691 675 -860
887 -14 18 -61 77 -105 132 -44 55 -88 111 -97 125 -9 14 -47 66 -83 115 -60
82 -174 250 -280 415 -175 271 -372 649 -538 1030 -29 69 -62 148 -72 175 -9
28 -24 64 -31 80 -21 47 -63 162 -94 260 -15 50 -33 103 -39 119 -13 33 -77
245 -98 323 -7 29 -20 79 -29 110 -40 148 -124 556 -124 601 0 18 -4 41 -10
51 -5 10 -14 56 -19 102 -6 46 -17 138 -26 204 -31 250 -37 352 -42 800 -5
449 3 707 28 885 6 41 15 111 20 155 15 138 26 218 38 280 6 33 25 134 42 225
17 91 49 237 71 325 22 88 44 178 48 201 5 22 13 51 19 65 5 13 17 51 27 84
65 234 214 647 310 860 165 370 272 578 449 870 168 279 359 556 524 761 4 5
25 32 46 60 67 88 148 184 225 267 42 45 101 111 132 147 89 102 294 309 393
395 50 44 122 109 161 145 39 36 108 94 153 130 45 36 101 81 124 101 214 181
723 521 1047 698 117 64 513 260 597 295 35 14 86 37 115 50 29 13 107 44 173
69 588 226 1106 359 1745 447 94 13 355 39 495 49 137 10 885 5 1050 -7z"/>
<path d="M6934 15137 c-3 -10 -4 -49 -1 -85 6 -62 4 -71 -23 -119 -35 -61 -60
-78 -115 -78 -49 0 -56 -20 -22 -61 13 -16 22 -35 20 -41 -8 -24 -41 -13 -62
20 -63 98 -113 146 -153 147 -15 0 -14 -6 8 -42 35 -62 64 -162 64 -224 0 -47
-3 -54 -19 -54 -11 0 -26 8 -33 18 -17 23 -99 55 -111 43 -5 -5 8 -40 31 -82
21 -41 45 -94 51 -119 18 -64 25 -75 51 -78 28 -5 40 12 40 60 0 34 4 40 43
59 66 33 77 47 77 96 0 74 53 67 69 -8 6 -32 9 -34 56 -39 46 -5 50 -7 47 -30
-1 -13 -23 -51 -49 -83 -45 -58 -40 -62 22 -17 39 29 205 219 239 274 20 32
65 152 66 173 0 7 11 36 25 66 l25 53 -18 54 c-17 49 -22 55 -49 58 -24 2 -35
-3 -51 -25 -11 -16 -45 -46 -76 -67 -68 -47 -86 -40 -86 33 0 37 -6 54 -29 81
-26 31 -30 33 -37 17z m240 -237 c-1 -61 -7 -87 -32 -143 -17 -37 -38 -70 -46
-73 -8 -3 -36 5 -62 18 -47 22 -49 24 -47 63 5 84 23 132 66 175 37 36 47 41
82 38 l40 -3 -1 -75z m-259 -130 c-8 -16 -15 -38 -15 -50 0 -15 -6 -20 -24
-20 -14 0 -27 4 -30 9 -10 15 46 91 66 91 17 0 17 -2 3 -30z m93 -132 c3 -22
-2 -29 -22 -34 -34 -8 -56 1 -56 24 0 26 21 43 50 40 19 -2 26 -10 28 -30z"/>
<path d="M9218 15018 l-3 -33 -60 2 c-33 1 -93 5 -134 9 -60 5 -73 4 -69 -7 3
-8 26 -21 52 -29 45 -14 47 -16 40 -45 -4 -16 -8 -43 -9 -60 -1 -16 -3 -38 -3
-47 -2 -21 -31 -23 -56 -5 -24 17 -13 57 15 57 11 0 17 5 14 10 -9 15 -78 12
-100 -3 -13 -10 -16 -21 -11 -40 5 -20 16 -29 49 -38 63 -16 72 -23 72 -54 0
-25 -5 -29 -50 -41 -27 -8 -65 -17 -82 -20 -39 -8 -42 -17 -8 -32 27 -13 46
-8 87 20 36 25 40 23 36 -19 -3 -36 -5 -38 -53 -48 -68 -14 -75 -20 -75 -67 0
-24 -7 -49 -16 -59 -32 -35 9 -89 67 -89 24 0 32 -15 24 -50 -8 -36 -26 -38
-68 -8 -30 22 -30 11 1 -25 22 -25 4 -40 -55 -47 -57 -6 -65 -22 -20 -38 50
-18 61 -15 107 23 52 43 80 51 130 36 34 -10 90 -60 90 -79 -1 -27 -20 -34
-74 -28 -38 5 -56 4 -56 -4 0 -19 52 -31 124 -28 l71 3 -3 35 c-3 41 -24 67
-70 86 -30 12 -33 17 -30 51 3 37 4 38 49 44 60 9 88 24 99 55 18 47 12 75
-26 110 -41 40 -82 49 -46 12 33 -36 37 -72 13 -112 -20 -32 -55 -51 -73 -40
-5 4 -7 13 -4 21 3 8 -1 25 -10 38 -15 23 -15 25 0 31 8 3 18 21 22 40 3 19
10 37 15 40 5 3 9 20 9 37 0 18 12 104 27 193 l26 161 49 -5 c60 -6 70 12 40
74 -27 55 -59 61 -64 12z m-230 -468 c4 -37 -17 -60 -50 -53 -34 7 -37 34 -7
64 26 26 53 21 57 -11z m-18 -99 c0 -34 -12 -51 -34 -51 -45 0 -62 44 -23 60
37 15 57 12 57 -9z"/>
<path d="M10630 14626 c0 -19 -4 -37 -9 -40 -5 -3 -39 8 -76 25 -109 52 -216
50 -115 -1 45 -23 48 -31 21 -68 -10 -15 -21 -44 -24 -66 -3 -21 -8 -41 -11
-43 -9 -10 -66 32 -66 48 0 9 14 23 31 32 30 14 31 15 11 26 -29 16 -53 13
-81 -8 -36 -28 -23 -61 39 -95 68 -37 65 -59 -10 -66 l-55 -5 38 -24 c38 -24
44 -39 27 -72 -8 -14 -21 -19 -50 -19 -28 0 -40 -4 -40 -15 0 -11 19 -15 87
-17 86 -3 88 -4 102 -32 22 -46 6 -60 -70 -64 -35 -2 -69 -8 -77 -14 -7 -6
-38 -10 -68 -9 -65 2 -70 -11 -14 -39 68 -35 44 -77 -36 -65 -56 8 -56 -7 0
-39 21 -11 37 -24 37 -28 -1 -5 -1 -15 -1 -23 0 -12 -16 -15 -85 -15 l-85 0 0
-28 c0 -29 25 -59 68 -81 25 -13 30 0 7 19 -32 26 -14 61 36 74 39 9 43 -16
14 -74 -14 -27 -25 -58 -25 -69 0 -24 -28 -41 -66 -41 -38 0 -94 -22 -94 -36
0 -20 20 -28 85 -35 33 -4 69 -10 80 -13 11 -4 4 2 -15 13 -19 11 -47 20 -62
21 -18 0 -28 5 -28 15 0 11 12 15 49 15 27 0 68 -7 91 -15 67 -24 73 -21 97
43 12 31 49 127 81 212 l59 155 46 23 c37 18 47 28 47 47 0 14 -9 34 -20 45
-23 23 -24 33 -10 58 20 35 100 264 100 286 0 23 0 23 48 9 26 -8 52 -17 59
-18 8 -3 10 -16 6 -38 -4 -29 -1 -37 22 -55 37 -29 41 -28 49 11 3 17 9 44 12
58 5 24 2 28 -24 34 -35 7 -47 19 -82 83 -33 58 -50 65 -50 18z"/>
<path d="M7082 14463 c-22 -21 -61 -61 -87 -90 l-47 -52 56 30 c86 47 95 25
36 -81 -16 -30 -60 -100 -97 -155 -81 -118 -82 -119 -331 -238 -28 -13 -44
-40 -37 -59 7 -18 62 -38 83 -31 9 4 46 29 82 56 61 47 171 107 196 107 21 0
45 -85 42 -147 l-3 -58 -87 -43 c-49 -23 -88 -49 -88 -56 0 -17 80 -46 124
-46 51 1 109 33 130 73 19 35 19 36 -2 110 -26 87 -29 185 -7 227 10 19 25 30
47 35 79 15 138 52 138 86 0 30 -28 29 -96 -1 -67 -31 -118 -38 -129 -20 -9
14 31 78 110 175 53 67 115 158 115 171 0 4 -90 44 -100 44 -5 0 -26 -17 -48
-37z"/>
<path d="M5288 14464 c-13 -13 -9 -46 11 -88 58 -123 73 -159 101 -241 51
-150 63 -232 38 -278 -29 -56 -132 -130 -221 -161 -24 -8 -33 -36 -16 -47 8
-5 41 -7 74 -4 54 5 64 9 105 50 54 53 76 57 85 15 20 -92 -67 -282 -152 -333
-56 -32 -24 -42 41 -11 100 47 170 165 197 330 9 58 9 83 -1 118 -19 67 0 93
171 237 30 25 63 63 74 83 l20 37 -42 40 c-29 27 -51 39 -71 39 l-29 0 -6 -79
c-6 -91 -43 -175 -88 -200 -24 -13 -29 -13 -51 1 -21 14 -26 31 -42 134 -24
155 -68 303 -99 332 -25 24 -86 40 -99 26z"/>
<path d="M6754 14311 c-10 -11 -57 -40 -104 -66 -107 -58 -118 -68 -146 -133
-21 -47 -33 -132 -19 -132 15 0 74 36 114 69 25 20 52 41 60 48 12 9 5 10 -32
6 -39 -5 -47 -3 -47 11 0 35 33 78 93 121 92 65 113 83 106 89 -3 3 -14 -3
-25 -13z"/>
<path d="M6893 14279 c-6 -6 -33 -25 -61 -42 -62 -40 -157 -117 -144 -117 6 0
17 6 24 13 7 7 40 31 73 54 78 53 140 103 128 103 -5 0 -14 -5 -20 -11z"/>
<path d="M11337 14163 c-17 -16 -4 -51 35 -90 36 -37 40 -45 31 -65 -9 -21
-16 -23 -86 -23 -41 0 -78 -3 -82 -7 -4 -4 37 -51 92 -105 60 -59 112 -122
133 -158 51 -92 55 -95 122 -95 65 0 73 10 28 36 -16 10 -44 38 -62 64 -48 67
-126 147 -188 194 -40 30 -50 41 -37 44 24 5 85 -17 130 -46 32 -22 40 -23 51
-11 28 30 105 170 101 181 -17 43 -240 110 -268 81z m133 -49 c0 -7 -11 -26
-25 -41 l-25 -28 -20 25 c-25 32 -25 49 2 59 28 10 68 2 68 -15z"/>
<path d="M10064 14123 c4 -10 -3 -26 -20 -45 -15 -15 -24 -31 -21 -35 4 -3 0
-15 -10 -25 -15 -17 -15 -18 14 -18 31 0 43 14 43 50 0 11 10 20 25 24 29 7
32 27 9 50 -21 22 -48 21 -40 -1z"/>
<path d="M4217 14053 c-8 -10 -32 -61 -53 -113 -20 -52 -41 -105 -47 -117 -15
-34 -46 -29 -62 10 -26 62 -58 81 -141 85 -69 4 -74 3 -74 -16 0 -13 16 -31
43 -49 44 -30 129 -145 148 -201 18 -53 -6 -78 -81 -87 -58 -7 -76 -19 -45
-31 8 -3 28 -28 45 -54 36 -55 53 -63 93 -41 26 15 28 19 22 61 -7 58 4 77 36
60 70 -36 74 -63 23 -140 -19 -30 -49 -82 -65 -115 -20 -39 -55 -83 -100 -125
-38 -36 -69 -71 -69 -78 0 -24 47 -36 87 -24 45 14 78 58 118 152 38 92 48
100 78 64 24 -27 27 -28 59 -16 75 27 78 23 78 -82 0 -111 4 -126 35 -126 44
0 55 -10 55 -52 0 -21 -5 -59 -11 -84 -17 -68 0 -79 49 -31 69 67 85 47 56
-68 -8 -33 -17 -77 -19 -98 -8 -72 -25 -116 -66 -167 -22 -28 -47 -67 -55 -86
-15 -36 -17 -34 74 -88 27 -16 67 45 83 129 4 22 13 65 19 95 6 30 13 65 15
77 5 23 63 54 124 68 24 5 35 16 47 43 9 21 12 42 7 49 -4 6 -29 41 -55 77
-35 49 -50 81 -58 124 -20 113 -25 127 -47 130 -16 2 -27 20 -48 80 -15 42
-37 85 -49 96 -19 16 -21 29 -21 111 0 97 -10 125 -47 125 -22 0 -57 -68 -59
-115 -1 -38 -30 -89 -53 -93 -28 -6 -66 25 -66 54 0 57 71 166 182 280 59 60
108 118 108 127 0 20 -29 37 -64 37 -19 0 -34 -14 -67 -60 -69 -98 -87 -81
-87 83 -1 64 -4 126 -7 137 -8 25 -46 26 -68 3z m17 -225 c3 -13 6 -66 6 -119
0 -83 -3 -98 -21 -118 l-21 -22 -27 30 c-62 70 -79 141 -30 128 39 -10 49 2
49 57 0 29 3 56 7 59 13 14 31 6 37 -15z m374 -951 c3 -32 0 -37 -18 -37 -27
0 -36 24 -21 56 16 35 35 25 39 -19z"/>
<path d="M5653 13804 c-11 -28 15 -62 94 -125 73 -57 165 -109 195 -109 25 0
119 56 159 94 67 65 59 71 -93 71 -142 1 -201 13 -284 61 -48 28 -62 30 -71 8z"/>
<path d="M10321 13611 c-12 -12 -21 -27 -21 -35 0 -23 -26 -26 -64 -5 -53 28
-65 23 -20 -10 21 -16 48 -38 60 -48 31 -30 58 -43 73 -33 8 4 21 30 30 56 11
30 25 53 39 59 27 12 29 25 3 25 -10 0 -32 3 -49 6 -22 5 -35 1 -51 -15z"/>
<path d="M12381 13573 c7 -10 24 -30 37 -45 44 -49 4 -90 -52 -53 -42 28 -52
12 -17 -27 17 -20 31 -40 31 -45 0 -5 -26 -34 -58 -66 -67 -66 -82 -63 -82 18
0 52 -16 95 -37 103 -10 3 -13 -14 -13 -64 0 -66 1 -70 37 -101 l37 -33 -26
-28 c-14 -15 -39 -42 -55 -60 -31 -34 -56 -36 -68 -4 -8 22 28 67 54 66 22 -1
28 10 11 21 -5 3 -26 6 -46 7 -28 1 -41 -4 -54 -23 -17 -22 -17 -25 -2 -51 17
-29 145 -148 159 -148 11 0 110 102 145 150 15 19 50 60 78 90 28 30 60 72 72
93 12 20 26 37 31 37 6 0 25 -11 43 -25 45 -35 61 -32 75 13 9 32 8 44 -5 71
-16 31 -36 34 -36 6 0 -14 -29 -35 -48 -35 -5 0 -30 18 -55 40 -53 47 -144
110 -159 110 -6 0 -5 -8 3 -17z"/>
<path d="M7815 13334 c-6 -2 -101 -11 -210 -19 -298 -22 -370 -31 -615 -76
-112 -21 -147 -29 -367 -84 -507 -126 -1112 -392 -1563 -688 -335 -219 -580
-417 -868 -700 -227 -222 -388 -410 -613 -716 -198 -269 -477 -782 -612 -1126
-208 -528 -309 -955 -369 -1555 -27 -263 -15 -873 22 -1120 5 -36 14 -105 21
-155 30 -233 123 -630 209 -885 177 -528 377 -924 730 -1443 25 -38 117 -160
157 -210 21 -26 58 -73 83 -105 24 -31 81 -95 125 -142 44 -47 103 -111 130
-143 108 -127 479 -455 693 -614 326 -241 748 -483 1117 -640 165 -70 420
-163 530 -193 17 -4 77 -22 135 -38 126 -36 294 -75 430 -101 30 -5 80 -15
110 -21 30 -6 75 -13 100 -16 25 -3 72 -9 105 -14 182 -28 321 -35 720 -34
270 0 454 4 515 12 52 7 133 17 180 23 82 10 188 27 315 50 33 6 134 29 225
51 437 104 806 239 1185 433 257 131 350 185 565 328 364 242 751 571 973 827
51 58 108 123 128 145 67 74 149 174 227 278 81 108 290 419 334 497 14 25 40
69 57 99 93 156 259 508 333 704 17 45 41 111 55 147 30 80 87 260 115 360 44
163 50 190 79 325 46 213 75 411 101 670 21 207 17 771 -6 980 -10 94 -22 202
-26 240 -4 39 -13 97 -19 130 -7 33 -17 85 -23 115 -5 30 -16 82 -23 115 -8
33 -24 103 -36 155 -79 356 -235 781 -426 1160 -167 332 -310 563 -505 820
-90 117 -115 149 -250 312 -124 151 -554 565 -686 662 -16 11 -74 55 -128 96
-636 483 -1339 809 -2104 975 -41 9 -104 23 -140 31 -65 14 -137 25 -285 45
-44 5 -109 14 -145 20 -157 23 -751 49 -785 33z m450 -224 c50 -6 146 -15 215
-20 145 -11 312 -34 534 -75 75 -14 169 -36 416 -101 123 -32 432 -139 545
-189 17 -8 75 -32 130 -56 112 -46 392 -189 502 -256 40 -23 75 -43 78 -43 9
0 381 -253 455 -310 203 -156 497 -420 619 -555 30 -33 87 -94 126 -135 40
-41 78 -84 86 -96 8 -12 33 -43 56 -70 98 -113 229 -297 405 -569 157 -241
377 -706 491 -1035 97 -281 185 -652 216 -908 6 -46 14 -89 18 -95 15 -25 24
-206 30 -612 5 -438 0 -548 -38 -810 -31 -204 -38 -245 -54 -320 -9 -38 -22
-99 -30 -135 -8 -36 -31 -123 -51 -195 -20 -71 -39 -143 -43 -160 -16 -63
-124 -355 -182 -493 -66 -156 -229 -475 -320 -627 -144 -239 -323 -493 -460
-648 -25 -29 -60 -72 -79 -97 -50 -67 -424 -443 -510 -513 -41 -33 -96 -79
-121 -101 -44 -39 -85 -72 -194 -154 -141 -108 -437 -297 -616 -395 -428 -234
-907 -412 -1379 -513 -214 -46 -245 -51 -580 -94 -98 -12 -415 -26 -555 -23
-261 4 -593 28 -730 53 -33 5 -105 17 -160 26 -55 8 -116 19 -135 24 -19 5
-69 16 -110 25 -95 20 -108 24 -320 85 -205 60 -394 127 -590 211 -109 47
-477 233 -540 274 -36 23 -94 59 -130 80 -159 94 -431 291 -575 415 -38 33
-99 84 -135 114 -75 62 -418 410 -500 506 -291 342 -549 737 -735 1125 -63
132 -88 187 -140 310 -39 93 -151 424 -180 535 -9 36 -21 76 -27 90 -5 14 -14
45 -19 70 -5 25 -24 119 -43 210 -36 168 -61 342 -92 620 -13 125 -15 219 -12
490 3 184 11 378 17 430 7 52 17 133 23 180 22 179 71 443 110 590 10 41 24
93 29 115 43 178 165 520 266 745 40 90 191 385 242 473 129 225 372 578 481
701 25 28 63 74 85 101 54 69 487 502 555 555 30 23 75 60 100 82 76 66 258
200 400 295 574 383 1183 636 1872 778 136 28 369 60 538 75 69 6 163 15 210
19 125 12 432 12 535 1z"/>
<path d="M4470 11243 c0 -5 270 -278 601 -608 564 -564 600 -602 595 -630 -6
-40 -1 -24 -161 -570 -49 -168 -93 -320 -124 -430 -17 -60 -48 -171 -70 -245
-44 -150 -86 -294 -94 -325 -8 -30 -55 -193 -72 -250 -33 -109 -242 -832 -260
-900 -7 -27 -34 -122 -60 -210 -54 -184 -55 -186 -129 -445 -31 -107 -63 -217
-71 -245 -18 -63 -74 -257 -126 -440 -42 -148 -83 -289 -129 -445 -15 -52 -30
-104 -33 -115 -3 -11 -35 -123 -72 -250 -37 -126 -78 -268 -91 -315 -13 -47
-26 -95 -30 -107 -8 -27 4 -29 49 -9 18 8 136 56 262 106 127 50 250 100 275
110 45 19 469 186 590 233 134 52 608 240 675 267 66 28 275 111 375 150 134
52 346 136 1130 447 525 208 739 293 955 378 121 47 252 99 290 115 39 16 259
103 490 195 231 91 449 177 485 192 36 14 92 36 125 49 71 27 232 91 260 105
11 5 51 20 90 35 38 14 164 63 280 109 115 46 298 117 405 160 257 100 296
117 418 181 368 192 655 493 842 879 76 156 95 208 138 375 52 202 66 327 59
533 -6 193 -11 230 -59 427 -174 719 -757 1288 -1483 1451 -206 46 -35 43
-3282 46 -1674 2 -3043 0 -3043 -4z m4010 -338 c141 -17 181 -24 295 -55 255
-68 503 -189 715 -348 85 -64 346 -321 384 -379 14 -21 42 -60 61 -88 19 -27
35 -53 35 -57 0 -5 -133 -8 -297 -8 l-296 0 -52 48 c-143 131 -334 251 -515
322 -92 36 -267 77 -409 95 -116 16 -148 16 -250 6 -214 -23 -315 -47 -486
-113 -196 -77 -363 -184 -514 -331 -236 -230 -388 -511 -452 -834 -17 -89 -19
-133 -16 -330 3 -159 8 -248 19 -293 18 -74 27 -100 37 -100 12 0 145 104 316
249 33 28 80 65 105 83 25 17 99 76 165 131 192 158 203 167 334 270 129 101
145 108 203 83 18 -8 58 -21 88 -29 109 -29 327 -90 405 -112 44 -13 132 -38
195 -55 63 -18 146 -42 183 -53 39 -11 81 -17 97 -13 16 3 76 39 132 81 94 69
316 231 494 360 38 28 93 67 123 88 l54 37 266 0 c146 0 272 -4 279 -9 7 -4
17 -23 22 -42 5 -19 18 -65 29 -104 12 -38 32 -133 46 -210 33 -185 35 -457 5
-640 -76 -459 -256 -814 -578 -1138 -191 -193 -346 -303 -584 -417 -167 -79
-313 -126 -513 -163 -209 -40 -513 -40 -710 0 -462 92 -780 258 -1091 569
-144 144 -188 197 -282 339 -47 71 -146 259 -179 340 -34 83 -92 281 -107 365
-10 52 -22 114 -27 137 -5 23 -9 144 -9 270 0 234 12 347 55 513 56 218 155
441 279 628 79 119 241 308 327 382 35 30 76 66 92 80 111 97 371 252 523 312
322 126 673 172 1004 133z"/>
<path d="M9775 9026 c-40 -32 -310 -237 -338 -256 -12 -8 -57 -42 -101 -75
-43 -33 -88 -67 -100 -75 -12 -8 -60 -44 -106 -79 -185 -141 -186 -141 -233
-126 -53 16 -110 32 -372 101 -115 31 -235 62 -265 71 -182 49 -330 86 -360
89 -28 4 -43 -2 -77 -28 -23 -18 -70 -55 -105 -82 -35 -27 -84 -68 -109 -90
-25 -23 -74 -64 -110 -93 -35 -29 -120 -98 -189 -155 -69 -57 -139 -114 -156
-128 -105 -85 -184 -154 -184 -161 0 -4 6 -14 13 -21 7 -7 31 -38 54 -68 100
-135 319 -307 514 -406 130 -65 331 -127 474 -145 202 -26 325 -23 520 13 337
62 688 266 900 523 105 127 156 206 220 340 114 235 155 420 155 693 0 100 -3
182 -7 182 -5 0 -21 -11 -38 -24z"/>
<path d="M7505 4754 c-11 -2 -45 -9 -75 -16 -108 -22 -180 -69 -218 -141 -27
-52 -27 -52 -27 -267 0 -202 1 -218 22 -260 27 -53 68 -83 158 -116 76 -28
131 -30 182 -9 20 9 43 13 50 11 18 -7 19 -416 1 -434 -16 -16 -75 -15 -84 0
-5 7 -9 94 -10 193 l-2 180 -159 0 -158 0 -3 -165 c-3 -169 2 -205 39 -287 29
-65 93 -102 219 -128 93 -19 125 -19 220 -1 103 20 137 37 193 93 41 43 49 57
57 109 14 83 13 998 -1 1049 -13 47 -68 108 -123 137 -71 37 -224 65 -281 52z
m83 -210 c21 -15 22 -21 22 -189 0 -209 -4 -225 -59 -225 -38 0 -40 2 -46 34
-4 18 -5 109 -3 201 3 151 5 168 22 181 25 18 36 18 64 -2z"/>
<path d="M6645 4668 c-27 -56 -36 -66 -87 -93 l-58 -30 0 -97 0 -97 63 -3 62
-3 5 -509 5 -509 70 -1 c39 0 109 0 158 2 l87 2 0 700 0 700 -138 0 -138 0
-29 -62z"/>
<path d="M8162 4358 l3 -373 145 0 144 0 7 32 c8 43 26 63 55 63 52 0 54 -11
54 -281 0 -154 -4 -258 -10 -270 -12 -21 -50 -25 -81 -9 -18 10 -19 23 -19
196 l0 185 -152 -3 -153 -3 0 -205 c0 -198 1 -206 24 -247 41 -71 118 -111
259 -133 74 -12 92 -12 175 5 150 30 221 77 257 171 18 50 20 77 20 332 0 169
-4 293 -11 317 -16 58 -55 104 -107 127 -39 18 -59 20 -151 15 -58 -3 -119 -9
-134 -13 l-28 -6 3 123 3 124 210 5 210 5 3 108 3 107 -366 0 -365 0 2 -372z"/>
<path d="M9261 4665 c-28 -61 -34 -68 -86 -91 l-55 -25 0 -100 0 -99 60 0 60
0 2 -507 3 -508 163 -3 162 -2 0 700 0 700 -140 0 -140 0 -29 -65z"/>
<path d="M4789 13111 c-47 -15 -69 -31 -85 -62 -26 -50 -15 -59 73 -59 43 0
89 6 103 13 29 15 51 80 33 98 -15 15 -91 21 -124 10z"/>
<path d="M12346 13075 c16 -86 -29 -114 -121 -76 -64 27 -33 0 40 -35 64 -31
89 -30 114 2 26 33 26 40 1 98 -25 55 -44 61 -34 11z"/>
<path d="M3370 12914 c-36 -31 -93 -105 -178 -230 -47 -69 -62 -100 -62 -127
0 -49 22 -54 88 -20 l54 27 36 -19 c72 -40 152 -195 152 -297 0 -54 -25 -150
-65 -248 -35 -87 -44 -157 -21 -166 21 -8 129 21 178 49 62 34 70 64 78 287 6
170 9 201 28 244 16 36 22 68 22 123 0 71 -1 74 -22 71 -25 -3 -38 -26 -65
-112 -33 -107 -56 -111 -103 -20 -23 46 -25 61 -30 235 -4 166 -7 189 -24 208
-24 27 -28 26 -66 -5z"/>
<path d="M13280 12783 c34 -54 37 -68 14 -81 -12 -7 -30 0 -68 25 -65 43 -100
42 -104 -4 -2 -21 5 -45 24 -72 22 -34 24 -44 14 -56 -19 -22 -40 -19 -114 21
-37 19 -70 33 -74 30 -3 -4 3 -19 15 -34 20 -26 31 -32 102 -49 l35 -8 -35
-33 c-19 -17 -41 -32 -49 -32 -16 0 -125 53 -147 72 -21 17 -15 -16 8 -46 16
-21 29 -26 64 -26 58 0 66 -16 24 -51 -42 -35 -49 -35 -99 -4 -22 14 -40 24
-40 22 0 -2 9 -22 20 -45 37 -77 22 -97 -45 -57 -49 28 -54 24 -29 -29 33 -67
-7 -95 -66 -47 -22 17 -53 34 -69 37 -45 9 -52 -31 -17 -100 15 -30 24 -60 20
-69 -8 -22 -7 -22 -55 9 -23 14 -43 23 -46 20 -3 -2 5 -23 18 -45 18 -32 20
-44 11 -53 -10 -10 -17 -9 -35 2 -81 51 -114 53 -130 10 -8 -20 -18 -30 -33
-30 -21 0 -54 -28 -54 -47 0 -5 11 -31 25 -58 20 -37 23 -50 14 -61 -6 -8 -17
-14 -23 -14 -19 0 -66 54 -76 86 l-8 29 -1 -27 c-1 -36 -20 -40 -56 -10 -34
28 -44 17 -24 -29 13 -34 43 -49 94 -49 47 0 51 -23 9 -60 -38 -33 -43 -33
-136 -3 -26 8 -50 19 -53 24 -4 5 -12 9 -20 9 -11 0 -9 -10 8 -42 l22 -43 65
-3 c62 -3 67 -5 113 -50 42 -41 47 -51 47 -89 0 -42 -1 -43 -35 -43 -25 0 -43
8 -66 31 -52 51 -42 27 17 -39 65 -73 97 -81 118 -31 12 30 11 44 -9 130 -6
24 1 32 67 83 97 74 116 95 120 125 2 19 10 27 28 29 14 2 33 11 43 20 18 16
20 15 33 -3 22 -30 17 -54 -20 -91 -28 -28 -42 -34 -75 -34 -49 0 -53 -14 -10
-29 71 -25 131 -6 143 44 4 15 -1 53 -10 86 l-17 59 84 79 c122 114 216 191
231 191 7 -1 29 -21 48 -45 19 -25 40 -45 46 -45 6 0 21 11 34 24 38 42 5 80
-52 58 -22 -8 -31 -7 -43 5 -8 8 -15 18 -15 23 0 5 32 37 71 72 39 34 112 101
162 148 51 47 109 98 130 114 20 16 37 37 37 47 0 29 16 23 40 -16 32 -52 55
-61 75 -31 22 34 30 93 15 111 -17 21 -25 19 -38 -10 -6 -14 -19 -25 -27 -25
-9 0 -53 38 -98 85 -94 97 -136 115 -87 38z m-52 -83 c17 -11 32 -22 32 -24 0
-10 -70 -47 -79 -42 -16 10 -22 57 -10 72 15 18 18 18 57 -6z m-495 -448 c15
-16 15 -20 1 -40 -20 -30 -48 -28 -63 4 -21 47 27 75 62 36z m-222 -179 c35
-21 36 -32 3 -56 -34 -25 -54 -15 -54 26 0 51 8 55 51 30z m-57 -85 c8 -13 6
-22 -8 -37 -11 -12 -23 -21 -27 -21 -16 0 -40 47 -33 64 8 22 53 18 68 -6z"/>
<path d="M2495 11793 c-47 -56 -48 -60 -25 -98 21 -34 20 -55 -3 -55 -7 0 -42
27 -77 59 -66 61 -134 91 -206 91 -67 0 -73 -53 -11 -105 58 -48 145 -110 187
-134 53 -29 78 -61 101 -132 17 -51 20 -77 15 -129 -9 -99 -33 -250 -47 -298
-15 -55 -4 -67 41 -44 26 12 44 34 68 81 30 59 32 71 32 162 0 146 18 144 106
-12 39 -69 54 -104 49 -119 -12 -38 5 -58 78 -94 81 -40 147 -49 147 -18 0 34
-36 74 -90 100 l-55 27 -3 57 c-3 66 18 118 48 118 19 0 60 -36 60 -53 0 -18
66 -87 83 -87 24 0 41 43 62 157 20 109 13 136 -37 131 -27 -3 -33 -9 -53 -66
-13 -35 -26 -66 -29 -70 -17 -16 -43 22 -63 93 -26 87 -67 165 -88 165 -34 0
-49 -128 -31 -282 7 -69 7 -78 -8 -78 -18 0 -36 36 -93 190 -20 52 -44 104
-54 116 -17 18 -19 38 -19 192 l0 172 -27 -1 c-19 0 -38 -12 -58 -36z"/>
<path d="M13976 11768 c12 -42 21 -51 64 -67 54 -20 60 -35 21 -55 -46 -24
-71 -19 -130 25 -29 22 -55 38 -58 35 -3 -2 -1 -17 4 -33 7 -20 20 -32 49 -41
55 -19 60 -27 31 -56 -33 -33 -46 -33 -123 5 -36 18 -67 29 -71 25 -4 -3 4
-30 16 -59 41 -93 68 -180 85 -272 13 -77 20 -94 48 -121 18 -18 44 -35 57
-39 20 -6 23 -4 18 11 -18 61 -109 308 -131 358 -14 33 -24 62 -21 65 14 13
62 -28 89 -77 17 -28 34 -52 39 -52 13 0 230 144 245 163 9 11 10 17 2 22 -6
4 -22 24 -35 45 -17 27 -35 42 -60 49 -20 5 -57 28 -84 50 -56 47 -65 50 -55
19z"/>
<path d="M1640 10850 c-25 -25 -25 -26 5 -138 14 -51 25 -107 25 -123 0 -27
-3 -29 -32 -27 -26 2 -33 -1 -36 -17 -10 -65 -12 -67 -40 -60 -15 3 -56 26
-92 50 -36 24 -81 47 -102 50 -79 15 -161 -62 -162 -152 -1 -56 17 -66 39 -24
19 37 55 48 104 31 20 -7 123 -56 229 -108 285 -142 301 -163 310 -404 5 -164
6 -166 68 -127 46 28 47 46 7 179 -55 186 -64 233 -68 373 -4 137 -4 138 18
135 14 -2 25 -13 30 -33 5 -16 13 -45 19 -63 11 -38 26 -120 35 -200 3 -29 9
-55 14 -58 11 -7 11 12 -2 106 -5 41 -10 137 -9 213 0 149 -6 172 -48 188 -44
17 -65 5 -84 -49 -22 -61 -23 -118 -2 -188 22 -75 16 -108 -18 -112 -31 -4
-73 21 -91 52 -17 30 -27 128 -35 322 -7 173 -14 204 -48 204 -8 0 -23 -9 -34
-20z m68 -403 c7 -15 10 -32 7 -37 -11 -18 -44 -10 -61 15 -13 21 -14 28 -4
40 18 22 43 15 58 -18z"/>
<path d="M14599 10651 l-24 -19 30 -24 c16 -12 43 -35 60 -51 l30 -27 -24 -20
c-35 -30 -62 -25 -98 17 -32 39 -53 41 -34 5 16 -30 14 -79 -4 -86 -9 -3 -31
8 -54 29 -21 19 -41 35 -45 35 -17 0 -3 -33 24 -57 56 -50 90 -169 58 -201
-10 -10 -58 -18 -58 -9 0 11 -52 123 -79 169 -37 65 -57 85 -48 47 3 -13 9
-36 12 -51 6 -23 2 -28 -27 -41 -55 -26 -110 -47 -120 -47 -10 0 -68 121 -68
143 0 8 9 26 20 40 11 14 20 35 20 48 0 26 -21 89 -30 89 -13 0 -40 -73 -40
-108 0 -44 46 -169 98 -265 l37 -69 40 7 c53 8 107 37 121 64 11 21 13 19 43
-33 20 -36 38 -56 49 -56 31 0 60 41 64 89 3 43 4 45 53 61 110 38 165 68 165
90 0 34 -35 92 -84 140 -42 41 -60 80 -36 80 6 0 10 7 10 15 0 21 -33 19 -61
-4z"/>
<path d="M2180 10337 c0 -56 99 -181 129 -163 11 7 -71 175 -92 188 -25 16
-37 8 -37 -25z"/>
<path d="M1616 10263 c-3 -4 -6 -22 -6 -42 0 -20 -7 -49 -16 -66 -14 -27 -14
-31 1 -41 31 -23 124 23 125 62 0 14 -96 95 -104 87z"/>
<path d="M2378 10260 c-23 -14 -24 -68 -3 -77 18 -6 133 16 140 28 8 12 -52
50 -87 55 -18 2 -41 0 -50 -6z"/>
<path d="M2100 10165 c0 -24 -5 -56 -12 -70 -14 -32 -4 -43 20 -22 31 28 57
20 100 -30 l40 -47 53 16 c92 28 103 28 134 9 23 -14 37 -37 62 -102 51 -137
46 -128 51 -96 5 38 -24 169 -47 216 -25 48 -65 81 -99 81 -14 0 -40 -11 -58
-25 -51 -39 -94 -34 -147 18 -24 23 -52 54 -61 70 -26 39 -36 34 -36 -18z"/>
<path d="M2357 9933 c-4 -3 -7 -56 -7 -117 l1 -111 39 -18 c80 -37 107 7 42
71 -63 60 -67 75 -37 125 14 24 25 47 25 50 0 9 -55 9 -63 0z"/>
<path d="M1354 9206 c-7 -18 34 -90 96 -169 65 -85 83 -115 76 -133 -10 -27
-99 -13 -182 28 -181 89 -285 78 -415 -44 -67 -62 -91 -98 -80 -116 6 -10 19
-7 58 13 44 21 64 25 145 25 52 0 108 -4 124 -9 16 -5 56 -17 89 -26 33 -9 76
-23 95 -30 19 -7 69 -24 110 -36 95 -29 240 -102 275 -139 15 -15 51 -76 80
-134 60 -120 59 -123 -20 -152 -62 -22 -75 -31 -75 -54 0 -15 11 -19 58 -22
31 -3 71 -11 89 -18 27 -12 41 -11 101 3 38 9 92 17 118 17 96 0 165 36 178
91 4 18 -3 39 -23 70 -48 75 -176 204 -248 249 -67 43 -163 127 -163 142 0 4
17 26 39 48 63 65 63 139 0 126 -15 -3 -52 -21 -83 -41 -30 -19 -64 -35 -74
-35 -25 0 -239 221 -248 255 -10 41 5 46 81 30 39 -9 102 -22 140 -30 39 -8
102 -22 140 -31 39 -9 88 -19 110 -23 70 -13 124 -33 141 -53 16 -17 16 -23
-4 -103 -29 -114 -29 -115 15 -115 46 0 94 49 141 142 38 79 41 122 10 142
-55 34 -341 90 -593 116 -55 6 -127 15 -160 19 -93 14 -135 13 -141 -3z m695
-751 c65 -40 64 -55 -4 -98 -36 -23 -53 -28 -97 -25 l-53 3 0 55 c1 83 6 90
65 90 36 0 61 -7 89 -25z"/>
<path d="M14505 9180 c-4 -6 -15 -8 -26 -5 -13 4 -19 2 -19 -8 0 -17 40 -30
63 -21 9 3 27 -2 41 -11 32 -21 56 -7 56 32 0 20 -3 24 -17 17 -23 -9 -53 -9
-74 0 -10 4 -20 2 -24 -4z"/>
<path d="M14710 9134 c0 -29 9 -46 40 -80 22 -24 40 -48 40 -53 0 -10 -49 -21
-96 -21 -29 0 -35 4 -40 28 -12 54 -16 62 -29 62 -10 0 -15 -16 -17 -52 -3
-49 -5 -53 -28 -53 -19 0 -25 6 -31 32 -3 18 -12 40 -20 49 -12 14 -14 14 -20
-3 -4 -10 -8 -37 -8 -60 -1 -38 -4 -43 -23 -43 -18 0 -29 13 -48 53 l-24 52
-6 -54 c-5 -50 -7 -55 -34 -62 -38 -10 -44 -6 -67 48 -23 55 -39 48 -39 -18 0
-45 -2 -49 -24 -49 -19 0 -27 8 -37 38 -26 81 -49 82 -49 3 0 -40 -4 -61 -13
-64 -20 -7 -30 3 -51 50 -35 79 -92 107 -107 53 -4 -14 -7 -47 -8 -73 -2 -76
-46 -75 -79 3 l-16 35 -11 -50 c-10 -45 -14 -50 -41 -53 -27 -3 -35 4 -85 72
-29 41 -57 75 -61 75 -10 1 -10 -90 0 -105 4 -6 17 -14 29 -18 12 -4 38 -25
58 -47 34 -38 36 -43 33 -101 -3 -53 -7 -64 -30 -81 -26 -20 -28 -20 -47 -3
-10 9 -22 37 -26 62 -9 65 -29 57 -22 -10 6 -61 31 -122 53 -130 36 -14 83 39
93 102 5 31 11 38 34 40 l27 3 0 -71 0 -71 38 7 c46 8 55 16 50 45 -2 17 -13
27 -38 35 -39 13 -53 47 -24 58 20 8 181 34 284 46 41 5 120 16 175 25 111 18
249 38 369 54 151 21 330 52 346 61 25 13 30 3 30 -57 0 -29 4 -53 8 -53 9 0
44 45 74 92 11 18 26 28 42 28 41 0 51 23 37 85 -8 34 -18 55 -26 55 -20 0
-53 -46 -60 -83 -8 -43 -36 -107 -47 -107 -4 0 -8 38 -8 84 0 55 -5 94 -15
112 -8 16 -15 40 -15 54 0 38 -18 10 -22 -34 -3 -38 -5 -39 -53 -52 -27 -7
-65 -13 -82 -14 -36 0 -41 12 -21 55 14 32 58 36 58 5 0 -11 5 -20 10 -20 6 0
10 11 10 24 0 28 -45 86 -66 86 -19 0 -40 -46 -49 -106 -6 -46 -10 -53 -33
-57 -46 -9 -54 0 -50 63 l3 57 -22 -14 c-21 -14 -23 -13 -29 3 -23 73 -44 86
-44 28z m-643 -204 c15 -31 1 -50 -38 -50 -25 0 -29 4 -29 28 0 54 44 68 67
22z"/>
<path d="M14154 9129 c-3 -6 -15 -9 -25 -6 -24 7 -24 -5 1 -28 13 -12 27 -15
44 -11 14 3 34 1 45 -6 23 -14 51 3 51 33 0 25 -16 32 -39 17 -16 -10 -23 -10
-33 0 -15 15 -35 16 -44 1z"/>
<path d="M14182 7774 l3 -47 127 -76 c70 -42 128 -81 128 -88 0 -7 -42 -32
-92 -55 -203 -94 -193 -87 -196 -142 -3 -48 -3 -48 23 -42 15 4 86 35 158 70
234 112 212 105 302 95 44 -5 103 -8 130 -7 l50 3 3 46 3 46 -48 7 c-26 4 -91
11 -144 15 -83 6 -101 11 -140 37 -24 17 -51 33 -59 37 -19 10 -32 17 -147 90
-51 31 -95 57 -98 57 -4 0 -5 -21 -3 -46z"/>
<path d="M1630 7690 c-30 -5 -109 -8 -176 -9 -67 -1 -155 -4 -197 -7 -84 -8
-95 -17 -82 -73 l6 -29 267 5 c147 3 290 8 317 12 l50 6 3 53 3 52 -68 -1
c-37 -1 -93 -5 -123 -9z"/>
<path d="M1758 7465 c-3 -3 -52 -10 -109 -15 -136 -13 -352 -38 -409 -47 -44
-8 -45 -9 -48 -47 -2 -21 1 -43 6 -48 5 -5 50 -2 108 6 108 16 296 36 332 36
12 0 22 -4 22 -9 0 -8 -227 -182 -310 -238 -19 -14 -55 -43 -79 -65 -39 -38
-42 -45 -37 -77 8 -54 -14 -52 291 -21 173 18 336 40 346 46 12 7 11 55 0 73
-10 15 -23 15 -284 -14 -82 -9 -158 -15 -170 -13 -16 2 35 45 201 168 122 91
224 173 227 183 4 9 1 33 -5 52 -10 30 -16 35 -44 35 -18 0 -35 -2 -38 -5z"/>
<path d="M14150 7188 c-24 -41 -50 -152 -49 -215 0 -64 34 -130 84 -165 42
-29 103 -44 292 -72 123 -18 157 -11 217 45 54 49 76 113 76 219 0 69 -3 81
-29 117 -34 47 -84 70 -180 82 -36 5 -73 12 -81 15 -29 11 -44 -11 -50 -76 -4
-35 -10 -73 -14 -84 -5 -18 -2 -23 20 -28 29 -8 54 8 54 33 0 28 22 41 67 41
47 0 87 -14 121 -44 50 -44 14 -189 -53 -208 -62 -18 -330 16 -387 50 -14 8
-32 26 -39 38 -18 34 -7 160 19 213 24 50 17 71 -24 71 -17 0 -31 -10 -44 -32z"/>
<path d="M1815 6860 c-16 -5 -64 -15 -105 -24 -233 -48 -409 -86 -424 -92 -14
-6 -17 -14 -12 -42 3 -19 9 -39 14 -44 8 -8 378 63 428 83 50 18 22 -21 -87
-122 -62 -57 -150 -141 -197 -186 l-86 -81 10 -39 c9 -37 10 -38 54 -37 25 0
81 9 125 18 114 26 143 32 304 65 79 17 148 36 152 43 10 15 10 47 1 69 -6 14
-27 12 -192 -22 -102 -20 -204 -41 -228 -47 -75 -17 -63 4 63 112 153 131 285
267 285 293 0 58 -30 73 -105 53z"/>
<path d="M14142 6652 c-49 -20 -96 -61 -117 -102 -8 -15 -21 -61 -30 -101 -34
-161 32 -245 220 -281 22 -4 69 -15 105 -24 108 -27 189 -29 228 -5 51 33 86
101 112 222 11 48 10 63 -4 107 -21 63 -56 94 -138 121 -53 17 -243 64 -313
77 -11 2 -39 -4 -63 -14z m265 -141 c141 -39 173 -64 173 -137 0 -36 -45 -118
-75 -138 -34 -22 -83 -16 -265 31 -132 35 -170 66 -170 138 0 47 30 118 57
134 28 18 164 4 280 -28z"/>
<path d="M1945 6260 c-33 -11 -114 -35 -180 -55 -66 -20 -157 -47 -203 -60
-45 -14 -88 -25 -95 -25 -7 0 -22 -6 -32 -14 -18 -13 -18 -18 19 -147 51 -180
63 -209 91 -209 45 0 51 24 26 103 -45 143 -50 161 -45 169 7 11 172 60 191
56 11 -2 25 -31 42 -88 l27 -85 41 -3 41 -3 -19 63 c-46 147 -44 158 34 178
23 6 55 16 70 22 16 6 31 7 36 2 4 -5 18 -45 30 -89 40 -140 41 -145 61 -145
27 0 50 11 50 24 0 6 -21 82 -46 169 -36 120 -51 157 -63 157 -9 -1 -43 -10
-76 -20z"/>
<path d="M14472 5968 c-6 -13 -20 -52 -32 -87 -28 -84 -48 -123 -63 -119 -7 2
-123 40 -259 86 -136 45 -251 82 -256 82 -9 0 -32 -58 -32 -82 0 -11 59 -35
223 -88 122 -39 238 -77 257 -85 65 -24 120 -38 126 -32 17 17 117 325 109
337 -12 20 -61 11 -73 -12z"/>
<path d="M1858 5728 c-253 -100 -278 -113 -278 -134 0 -28 20 -74 32 -74 4 0
52 18 105 40 128 52 139 52 163 -6 l20 -46 -100 -105 c-55 -58 -100 -114 -100
-124 0 -10 8 -34 17 -54 l17 -36 113 113 112 112 23 -22 c13 -12 43 -28 67
-37 52 -18 107 -7 159 31 79 61 84 150 16 322 -43 111 -56 132 -79 131 -5 0
-135 -50 -287 -111z m294 -49 c25 -52 40 -132 30 -160 -24 -60 -96 -88 -149
-56 -48 28 -108 166 -81 184 26 17 163 72 173 69 6 -1 18 -18 27 -37z"/>
<path d="M13830 5668 c-78 -22 -135 -97 -166 -221 -14 -58 -15 -74 -4 -107 20
-62 73 -104 195 -155 61 -26 130 -56 155 -67 25 -12 70 -23 100 -25 47 -3 61
0 95 25 67 47 145 220 131 293 -8 44 -38 94 -70 115 -68 44 -377 163 -399 153
-1 0 -18 -5 -37 -11z m146 -127 c186 -69 257 -113 270 -167 10 -41 -43 -135
-90 -158 -47 -23 -75 -17 -221 43 -125 53 -162 75 -181 113 -14 26 -14 34 1
81 34 115 90 137 221 88z"/>
<path d="M13541 5164 c-18 -23 -19 -30 -9 -46 14 -20 126 -85 286 -165 50 -25
92 -52 92 -58 0 -13 -273 -35 -426 -35 -57 0 -96 -5 -105 -12 -18 -15 -49 -63
-49 -77 0 -5 23 -21 52 -36 28 -15 110 -59 182 -97 280 -151 317 -170 330
-165 8 3 21 19 29 36 19 39 37 27 -275 193 -65 35 -118 66 -118 69 0 3 80 9
178 13 97 3 223 12 280 18 99 11 103 13 117 41 27 55 38 46 -255 200 -63 33
-144 77 -180 97 -94 54 -104 56 -129 24z"/>
<path d="M2510 4962 c-40 -18 -468 -277 -487 -295 -13 -11 -23 -26 -23 -32 0
-15 38 -65 49 -65 5 0 95 52 200 115 179 107 211 124 211 109 0 -6 -49 -94
-95 -171 -19 -32 -35 -70 -35 -85 l0 -27 153 -3 152 -3 -70 -46 c-38 -25 -116
-72 -173 -105 -57 -32 -115 -69 -130 -81 l-27 -21 19 -36 c11 -20 26 -36 33
-36 16 0 69 30 339 192 100 59 186 114 192 120 7 9 5 24 -5 51 l-15 37 -169 0
c-140 0 -171 3 -175 15 -3 8 22 65 57 127 102 184 95 166 72 207 -21 36 -44
46 -73 33z"/>
<path d="M13251 4644 c-35 -45 -28 -58 72 -126 59 -40 93 -70 95 -84 4 -28
-115 -204 -139 -204 -4 0 -47 27 -96 60 -110 75 -146 78 -159 14 -6 -30 -2
-32 215 -180 240 -162 290 -194 306 -194 13 0 45 52 45 73 0 8 -49 47 -110 87
-60 40 -110 79 -110 87 0 8 14 35 30 60 17 24 30 47 30 50 0 14 72 93 85 93 8
0 61 -31 119 -70 58 -38 112 -70 118 -70 20 1 51 70 38 85 -11 13 -504 345
-513 345 -3 0 -15 -12 -26 -26z"/>
<path d="M2775 4327 c-22 -13 -99 -67 -172 -121 -121 -90 -133 -102 -153 -151
-21 -52 -21 -56 -6 -102 34 -101 121 -203 195 -228 72 -23 119 -5 271 108 168
124 190 152 190 241 0 62 -18 109 -68 176 -71 96 -172 126 -257 77z m145 -92
c50 -26 85 -82 84 -134 0 -25 -6 -56 -12 -67 -6 -12 -57 -55 -112 -95 -192
-141 -214 -146 -284 -74 -78 80 -72 143 21 220 118 98 142 115 189 140 54 29
74 31 114 10z"/>
<path d="M12955 4190 c-31 -13 -131 -120 -156 -169 -54 -105 -29 -201 75 -280
33 -25 76 -60 96 -77 62 -55 140 -103 177 -110 78 -15 185 52 246 155 48 81
52 98 31 122 -26 29 -40 23 -65 -28 -27 -57 -82 -119 -122 -140 -44 -22 -79
-10 -168 59 -44 35 -97 76 -117 91 -20 15 -50 51 -66 79 l-30 51 29 54 c15 29
50 73 76 97 27 24 49 51 49 58 0 25 -33 47 -55 38z"/>
<path d="M3162 3888 c-31 -29 -83 -78 -117 -110 -33 -31 -82 -74 -110 -96 -77
-60 -167 -160 -159 -174 15 -27 38 -48 51 -48 8 0 60 44 116 98 111 107 224
199 233 189 3 -3 -5 -41 -19 -84 -13 -43 -39 -125 -56 -183 -18 -58 -41 -131
-52 -163 -10 -31 -19 -65 -19 -76 0 -27 38 -71 62 -71 12 0 53 31 97 73 42 40
94 88 116 107 85 71 255 236 255 246 0 19 -48 57 -62 48 -24 -15 -183 -152
-213 -184 -16 -17 -52 -51 -79 -73 l-49 -42 6 45 c3 25 23 99 45 165 21 66 53
166 72 223 l33 103 -29 30 c-15 16 -36 29 -46 29 -11 0 -45 -24 -76 -52z"/>
<path d="M12518 3694 c-62 -64 -117 -122 -121 -131 -7 -11 8 -29 55 -71 34
-31 122 -113 193 -182 146 -141 201 -190 216 -190 13 0 52 39 163 163 84 95
87 99 70 118 -9 10 -24 19 -32 19 -8 0 -51 -38 -96 -85 -45 -47 -90 -85 -99
-85 -19 0 -147 117 -147 133 0 5 27 40 61 78 51 58 60 73 55 94 -12 48 -34 42
-110 -34 -39 -39 -75 -71 -80 -71 -17 0 -126 103 -126 119 0 9 36 56 81 104
68 73 79 89 70 106 -23 41 -39 32 -153 -85z"/>
<path d="M12236 3413 c-50 -49 -122 -114 -159 -147 -73 -63 -79 -81 -35 -106
27 -15 28 -14 81 38 29 28 58 52 64 52 7 0 40 -33 75 -72 75 -86 299 -321 311
-327 12 -5 68 51 65 65 -2 7 -57 71 -123 142 -66 71 -148 161 -183 200 l-63
71 63 59 62 60 -17 26 c-10 14 -25 26 -33 26 -9 0 -57 -39 -108 -87z"/>
<path d="M3590 3425 c-61 -32 -264 -240 -290 -296 -41 -91 -18 -171 73 -257
135 -127 235 -110 371 61 l39 49 -66 66 -67 67 -21 -22 -22 -22 27 -31 c14
-17 26 -36 26 -41 0 -6 -23 -34 -51 -64 -66 -70 -94 -76 -152 -36 -24 16 -51
41 -60 55 -21 32 -22 88 -1 129 22 43 200 224 244 247 31 16 40 17 74 5 47
-16 132 -97 152 -143 11 -28 17 -32 36 -27 38 12 42 22 29 64 -18 63 -101 145
-186 186 -40 19 -81 35 -91 35 -10 -1 -39 -12 -64 -25z"/>
<path d="M4030 3059 c-32 -13 -82 -61 -128 -124 -20 -27 -42 -57 -49 -65 -129
-161 -147 -219 -94 -307 29 -47 130 -126 195 -152 55 -23 58 -23 101 -7 53 21
109 77 213 218 94 126 111 175 87 255 -36 121 -220 223 -325 182z m149 -104
c52 -26 81 -71 81 -124 0 -44 -6 -55 -97 -176 -69 -91 -109 -135 -134 -148
-35 -17 -38 -17 -81 2 -48 20 -87 60 -107 109 -11 25 -10 35 5 63 25 50 161
230 197 262 36 31 90 36 136 12z"/>
<path d="M11624 2897 c-75 -42 -234 -152 -233 -162 0 -5 35 -62 79 -125 43
-63 117 -172 165 -242 47 -69 92 -132 100 -138 17 -14 69 -5 86 16 10 12 -1
33 -60 119 -39 57 -71 111 -71 119 0 8 24 30 53 49 53 36 97 73 97 83 0 16
-23 44 -36 44 -8 0 -33 -12 -56 -27 -22 -16 -52 -36 -67 -45 -44 -30 -63 -23
-108 45 -23 34 -45 69 -48 78 -7 18 21 44 118 110 60 42 72 70 39 88 -14 8
-29 5 -58 -12z"/>
<path d="M4517 2763 c-31 -35 -327 -507 -324 -517 6 -18 264 -186 286 -186 15
0 40 28 41 47 0 6 -45 40 -100 74 -55 34 -100 67 -100 73 0 12 52 97 212 345
46 70 75 126 72 135 -6 16 -47 46 -62 46 -5 0 -16 -8 -25 -17z"/>
<path d="M11141 2591 c-66 -25 -155 -91 -176 -131 -22 -43 -19 -132 6 -183 56
-111 162 -277 193 -305 20 -17 51 -34 69 -37 72 -14 212 49 278 123 36 42 39
49 39 106 0 56 -5 70 -66 181 -84 153 -110 191 -156 228 -49 39 -112 45 -187
18z m104 -85 c18 -8 40 -25 48 -38 113 -184 157 -274 157 -317 0 -31 -47 -86
-85 -101 -45 -17 -123 -12 -144 9 -30 30 -158 252 -165 288 -16 72 19 129 99
160 40 15 50 15 90 -1z"/>
<path d="M4829 2423 c-40 -71 -83 -146 -95 -168 -12 -22 -44 -79 -72 -127 -75
-129 -75 -140 -10 -174 26 -13 29 -13 36 3 9 23 188 340 253 449 27 45 49 87
49 93 0 12 -58 51 -77 51 -6 0 -44 -57 -84 -127z"/>
<path d="M5184 2318 c-22 -24 -71 -79 -109 -123 -38 -44 -114 -126 -169 -182
-120 -122 -127 -134 -81 -156 l33 -16 47 50 c25 27 55 49 65 49 10 0 50 -15
89 -34 38 -18 80 -36 92 -39 19 -5 21 -11 15 -38 -3 -18 -9 -56 -12 -83 -6
-50 -6 -51 27 -65 19 -8 37 -16 41 -18 12 -7 35 59 42 122 4 33 11 83 16 110
5 28 16 95 25 150 9 55 20 122 26 148 5 27 9 68 9 93 0 38 -4 45 -30 59 -51
26 -82 20 -126 -27z m36 -153 c-19 -134 -33 -210 -41 -219 -11 -12 -138 45
-139 63 0 21 174 230 184 220 3 -2 1 -31 -4 -64z"/>
<path d="M10414 2211 c-29 -18 -31 -23 -38 -97 -10 -125 -31 -219 -46 -216
-16 4 -137 99 -147 116 -28 44 -121 83 -137 57 -3 -5 -16 -11 -28 -14 -20 -4
-153 -43 -323 -94 -27 -8 -69 -19 -93 -25 -33 -7 -43 -15 -48 -35 -8 -30 8
-60 28 -54 7 2 36 10 63 18 85 25 98 23 106 -17 3 -19 18 -71 32 -115 14 -44
40 -132 57 -195 48 -173 52 -180 99 -180 52 0 66 18 47 61 -8 19 -31 93 -51
164 -21 72 -48 163 -61 204 -13 40 -24 88 -24 106 0 31 2 32 75 55 70 22 75
25 75 52 0 15 5 28 12 28 6 0 37 -24 68 -52 31 -29 96 -87 144 -128 50 -43 97
-92 108 -115 19 -35 61 -142 75 -187 6 -20 29 -23 67 -8 30 11 33 35 12 90
-65 168 -66 172 -55 261 5 46 14 120 19 164 5 44 12 101 16 128 8 54 -1 59
-52 28z"/>
<path d="M5937 2013 c-9 -27 -44 -139 -77 -251 l-62 -203 19 -51 c33 -93 126
-148 252 -148 76 0 119 21 151 72 18 30 103 283 145 432 l17 60 -24 18 c-13 9
-34 18 -48 18 -24 0 -28 -9 -75 -168 -64 -216 -100 -313 -122 -326 -53 -31
-120 -24 -162 19 -23 23 -26 33 -25 93 1 62 22 142 104 398 6 17 10 38 10 47
0 19 -29 37 -62 37 -20 0 -27 -9 -41 -47z"/>
<path d="M6481 1873 c-6 -21 -22 -96 -37 -168 -14 -71 -32 -157 -39 -190 -34
-160 -46 -229 -41 -241 3 -8 20 -14 41 -14 30 0 37 5 48 33 8 17 17 50 21 72
4 22 11 60 16 85 5 25 17 81 26 125 22 111 24 115 38 115 11 0 66 -128 66
-153 0 -5 6 -23 14 -40 8 -18 34 -92 58 -166 47 -144 56 -156 122 -149 28 3
32 7 37 48 4 25 14 79 23 120 10 41 21 98 26 125 5 28 21 104 34 170 34 160
34 161 -9 169 -44 9 -52 4 -60 -37 -3 -17 -12 -61 -20 -97 -8 -36 -21 -101
-30 -145 -25 -118 -37 -155 -50 -155 -7 0 -15 12 -18 28 -3 15 -39 126 -80
247 -79 233 -79 233 -149 250 -24 6 -28 4 -37 -32z"/>
<path d="M9412 1890 c-18 -4 -35 -9 -37 -11 -2 -2 7 -44 20 -94 12 -49 30
-126 39 -170 10 -44 21 -88 27 -97 5 -10 9 -28 9 -40 1 -13 11 -66 23 -118
l23 -95 47 -3 c58 -4 65 9 43 75 -9 25 -16 59 -16 74 0 15 -4 30 -9 33 -5 3
-11 23 -14 43 -4 37 -11 68 -61 281 -22 95 -39 134 -55 131 -3 -1 -21 -5 -39
-9z"/>
<path d="M9065 1831 c-94 -24 -160 -74 -175 -132 -14 -50 8 -135 42 -166 25
-22 131 -66 188 -78 78 -16 120 -55 120 -110 0 -67 -82 -108 -213 -107 l-88 1
3 -37 c3 -33 6 -37 43 -45 23 -4 76 -3 125 2 110 14 185 50 217 106 43 77 20
185 -51 233 -40 27 -132 62 -164 62 -25 0 -103 36 -114 54 -15 22 -8 86 11
105 20 20 89 38 179 48 52 6 53 6 50 37 l-3 31 -70 2 c-38 1 -83 -2 -100 -6z"/>
<path d="M7093 1784 c-8 -3 -13 -24 -13 -47 0 -23 -16 -150 -35 -282 -19 -132
-35 -257 -35 -277 l0 -38 44 0 c34 0 46 4 50 18 10 35 25 130 36 227 6 55 17
136 25 180 8 44 15 112 17 150 l3 70 -40 2 c-22 1 -46 0 -52 -3z"/>
<path d="M7287 1753 c-6 -10 7 -94 28 -188 19 -84 54 -244 65 -300 5 -22 13
-53 19 -68 6 -16 11 -41 11 -57 0 -27 4 -29 55 -41 68 -15 73 -11 108 81 83
220 154 405 166 435 5 11 17 39 26 63 10 23 16 44 14 46 -2 3 -22 6 -43 8 -38
3 -39 2 -61 -52 -13 -30 -38 -93 -56 -140 -80 -210 -116 -295 -125 -295 -5 0
-12 18 -15 40 -4 22 -19 94 -33 160 -15 66 -31 140 -36 165 -5 25 -16 68 -23
95 -13 49 -14 50 -54 53 -23 2 -43 -1 -46 -5z"/>
<path d="M8396 1743 l-78 -4 6 -102 c8 -132 25 -360 34 -462 l7 -80 48 -3 48
-3 -1 123 c-1 68 -1 129 -1 136 1 9 17 12 58 10 l57 -3 74 -124 75 -123 35 6
c19 3 40 10 46 16 12 12 11 14 -82 173 -29 49 -52 92 -52 95 1 4 15 16 33 27
69 44 95 140 58 220 -45 98 -89 110 -365 98z m252 -95 c16 -20 25 -84 18 -123
-9 -46 -39 -61 -143 -70 l-83 -7 0 58 c0 33 -5 77 -10 98 -5 22 -7 44 -4 48 9
14 210 10 222 -4z"/>
<path d="M7851 1716 c-9 -10 -9 -61 -1 -202 5 -104 10 -244 10 -311 l0 -123
178 0 c125 0 182 4 190 12 17 17 15 55 -4 62 -9 3 -72 6 -140 6 l-124 0 0 109
c0 90 3 110 16 115 9 3 51 6 95 6 76 0 80 1 89 26 6 14 8 30 4 35 -3 5 -50 9
-105 9 -98 0 -100 0 -109 26 -14 37 -12 140 3 152 6 5 67 13 135 17 l122 8 0
33 0 34 -174 0 c-136 0 -176 -3 -185 -14z"/>
</g>
</svg>
