<?xml version="1.0" standalone="no"?>
<!DOCTYPE svg PUBLIC "-//W3C//DTD SVG 20010904//EN"
 "http://www.w3.org/TR/2001/REC-SVG-20010904/DTD/svg10.dtd">
<svg version="1.0" xmlns="http://www.w3.org/2000/svg"
 width="433.000000pt" height="101.000000pt" viewBox="0 0 433.000000 101.000000"
 preserveAspectRatio="xMidYMid meet">

<g transform="translate(0.000000,101.000000) scale(0.100000,-0.100000)"
fill="#000000" stroke="none">
<path d="M0 505 l0 -505 2165 0 2165 0 0 505 0 505 -2165 0 -2165 0 0 -505z
m403 291 c48 -20 83 -64 102 -126 33 -111 46 -137 68 -147 35 -16 68 3 137 80
52 56 67 67 94 67 57 0 70 -27 74 -143 4 -112 -8 -171 -39 -188 -34 -18 -68
-1 -129 63 -49 52 -62 61 -91 60 -19 0 -39 -8 -46 -18 -26 -35 -15 -64 52
-139 71 -79 79 -104 43 -142 -21 -23 -25 -23 -228 -23 -195 0 -209 1 -234 21
-33 26 -35 68 -3 96 13 12 74 34 146 53 130 35 151 47 151 84 0 43 -22 57
-118 77 -109 22 -143 38 -174 81 -18 26 -23 46 -23 94 0 51 4 66 29 98 47 62
120 82 189 52z m1725 -33 l3 -43 -65 0 -66 0 0 45 0 46 63 -3 62 -3 3 -42z
m266 41 c12 -5 16 -21 16 -70 l0 -64 60 0 60 0 0 -45 0 -45 -60 0 -60 0 0
-158 c0 -110 4 -162 12 -170 7 -7 34 -12 60 -12 l48 0 0 -49 c0 -56 -7 -61
-78 -61 -73 1 -129 31 -152 82 -17 37 -20 66 -20 205 l0 162 -32 3 c-31 3 -33
5 -33 43 0 38 2 40 33 43 l32 3 0 63 c0 34 3 66 7 69 8 9 86 9 107 1z m-581
-147 c53 -35 62 -74 65 -304 l3 -213 -60 0 -60 0 -3 195 -3 195 -27 26 c-46
47 -127 30 -148 -29 -5 -17 -10 -110 -10 -209 l0 -179 -62 3 -63 3 -5 195 c-3
107 -9 201 -14 208 -15 25 -67 40 -100 31 -59 -17 -61 -22 -66 -237 l-5 -197
-62 -3 -63 -3 0 266 0 265 60 0 c57 0 60 -1 60 -25 0 -29 12 -32 31 -9 27 33
70 46 137 42 62 -4 67 -6 102 -45 l36 -42 38 39 c56 58 153 70 219 27z m1747
-11 c44 -29 76 -76 85 -128 l7 -38 -56 0 c-56 0 -56 0 -72 39 -22 55 -55 74
-115 69 -28 -3 -58 -13 -69 -23 -49 -45 -64 -210 -25 -285 42 -82 174 -79 209
5 15 34 17 35 70 35 50 0 56 -2 56 -20 0 -56 -82 -142 -152 -161 -90 -24 -212
5 -264 63 -54 58 -82 172 -65 263 23 124 91 196 201 213 73 10 144 -2 190 -32z
m518 4 c41 -23 82 -82 82 -119 0 -19 -6 -21 -55 -21 -49 0 -57 3 -65 24 -30
81 -180 91 -201 13 -10 -37 16 -63 68 -72 114 -20 178 -36 207 -53 44 -25 68
-76 63 -133 -8 -94 -79 -149 -204 -157 -152 -10 -243 43 -268 155 l-7 33 60 0
c60 0 60 0 72 -35 16 -48 49 -68 115 -68 63 0 102 21 111 59 11 43 -19 62
-133 83 -146 28 -187 54 -203 128 -17 71 24 149 90 175 76 30 203 24 268 -12z
m-1185 17 c18 -8 38 -21 46 -30 19 -24 31 -21 31 8 0 24 3 25 60 25 l60 0 0
-265 0 -265 -59 0 c-59 0 -60 0 -63 30 l-3 31 -42 -31 c-102 -75 -243 -37
-305 84 -26 49 -36 189 -19 253 15 55 67 122 116 150 46 26 128 31 178 10z
m-763 -262 l0 -265 -65 0 -65 0 0 265 0 265 65 0 65 0 0 -265z"/>
<path d="M2779 576 c-76 -43 -89 -241 -21 -317 35 -39 92 -48 142 -22 27 14
39 29 52 68 31 90 20 199 -26 251 -28 33 -106 43 -147 20z"/>
</g>
</svg>
