<?xml version="1.0" standalone="no"?>
<!DOCTYPE svg PUBLIC "-//W3C//DTD SVG 20010904//EN"
 "http://www.w3.org/TR/2001/REC-SVG-20010904/DTD/svg10.dtd">
<svg version="1.0" xmlns="http://www.w3.org/2000/svg"
 width="841.000000pt" height="500.000000pt" viewBox="0 0 841.000000 500.000000"
 preserveAspectRatio="xMidYMid meet">

<g transform="translate(0.000000,500.000000) scale(0.100000,-0.100000)"
fill="#000000" stroke="none">
<path d="M0 4315 l0 -685 23 5 c12 3 92 14 177 26 135 17 185 19 385 14 220
-7 236 -6 375 20 80 14 219 44 310 65 149 35 198 41 495 65 182 14 401 25 489
25 l158 0 597 156 c328 85 664 173 746 194 165 44 433 138 565 200 80 37 101
42 335 75 138 20 432 67 655 105 1804 307 2144 365 2285 390 l160 28 -3877 1
-3878 1 0 -685z"/>
<path d="M1 1813 l-1 -1813 4205 0 4205 0 0 550 0 550 -85 0 -85 0 0 85 0 85
-160 0 -160 0 0 315 0 315 -90 0 -90 0 -2 -397 -3 -398 -151 -3 -151 -3 -174
401 -174 401 -78 -3 -79 -3 -171 -397 -171 -398 -148 0 -148 0 0 400 0 400
-90 0 -90 0 0 -400 0 -400 -152 0 -153 1 -97 164 c-54 90 -98 166 -98 169 0 3
17 13 37 21 83 35 122 101 123 206 0 96 -35 160 -110 203 l-55 31 -222 3 -223
3 0 -400 0 -401 -307 0 -308 1 60 32 c105 56 170 138 199 252 42 160 -2 325
-116 430 -88 81 -143 100 -304 100 l-130 0 -76 -38 c-126 -62 -200 -167 -217
-308 -25 -193 58 -364 213 -439 l61 -29 -307 -1 -308 0 0 400 0 400 -138 0
-137 0 -47 -132 c-26 -73 -66 -186 -89 -250 -22 -65 -44 -116 -48 -114 -3 2
-44 115 -91 250 l-85 246 -137 0 -138 0 0 -400 0 -400 -180 0 -180 0 0 85 0
85 -195 0 -196 0 3 78 3 77 173 3 172 2 0 80 0 80 -172 2 -173 3 0 70 0 70
183 3 182 2 0 80 0 80 -275 0 -275 0 0 -400 0 -400 -192 2 -193 3 -3 398 -2
397 -133 0 -133 0 -89 -250 c-48 -138 -91 -248 -94 -244 -3 3 -45 114 -92 247
l-86 242 -136 3 -137 3 0 -401 0 -400 -161 0 c-184 0 -175 -7 -108 91 30 45
49 89 70 168 32 118 36 210 19 476 -9 145 -6 176 60 565 9 54 7 58 -45 170
-47 101 -55 130 -70 232 l-16 117 30 58 29 58 -52 55 c-46 48 -62 77 -121 220
-38 91 -82 199 -97 240 l-27 75 0 -1812z m4492 -79 c55 -28 106 -84 123 -137
25 -74 15 -174 -22 -234 -82 -132 -278 -152 -383 -38 -93 101 -90 276 8 369
65 62 193 80 274 40z m1042 2 c36 -16 49 -42 43 -91 -5 -46 -42 -64 -145 -71
l-93 -7 0 92 0 91 80 0 c47 0 95 -6 115 -14z m-2100 -623 c-6 -18 -209 -19
-203 0 3 6 49 143 104 302 l99 290 3 -290 c1 -159 0 -295 -3 -302z m-2569 5
c5 -16 -4 -18 -95 -18 l-101 0 1 298 1 297 94 -280 c52 -154 97 -288 100 -297z
m2124 287 c51 -154 95 -286 97 -292 4 -10 -19 -13 -96 -13 l-101 0 0 297 c0
163 2 294 4 292 2 -2 45 -130 96 -284z m-1780 -15 l0 -290 -100 0 c-55 0 -100
3 -100 6 0 4 27 86 61 183 33 97 77 224 97 283 20 60 38 108 40 108 1 0 2
-130 2 -290z m5839 152 c23 -56 41 -105 41 -107 0 -3 -40 -5 -89 -5 l-89 0 34
88 c48 122 54 135 58 131 3 -2 23 -50 45 -107z m-1617 -142 c25 -43 148 -284
148 -292 0 -4 -54 -8 -120 -8 l-120 0 0 161 0 160 41 -3 c24 -2 46 -10 51 -18z
m1757 -205 c17 -41 31 -79 31 -85 0 -6 -75 -10 -216 -10 -202 0 -216 1 -210
18 4 9 19 47 33 85 l26 67 152 0 152 0 32 -75z"/>
</g>
</svg>
