<?xml version="1.0" encoding="UTF-8" standalone="no"?>
<!-- Created with Inkscape (http://www.inkscape.org/) -->

<svg
   version="1.1"
   id="svg2"
   width="269.04001"
   height="160.02667"
   viewBox="0 0 269.04001 160.02667"
   sodipodi:docname="MUN_Logo_CMYK.eps"
   xmlns:inkscape="http://www.inkscape.org/namespaces/inkscape"
   xmlns:sodipodi="http://sodipodi.sourceforge.net/DTD/sodipodi-0.dtd"
   xmlns="http://www.w3.org/2000/svg"
   xmlns:svg="http://www.w3.org/2000/svg">
  <defs
     id="defs6" />
  <sodipodi:namedview
     id="namedview4"
     pagecolor="#ffffff"
     bordercolor="#000000"
     borderopacity="0.25"
     inkscape:showpageshadow="2"
     inkscape:pageopacity="0.0"
     inkscape:pagecheckerboard="0"
     inkscape:deskcolor="#d1d1d1" />
  <g
     id="g8"
     inkscape:groupmode="layer"
     inkscape:label="ink_ext_XXXXXX"
     transform="matrix(1.3333333,0,0,-1.3333333,0,160.02667)">
    <g
       id="g10"
       transform="scale(0.1)">
      <path
         d="M 142.129,181.5 V 73.0117 c 0,-22 10.996,-50.5117 44.496,-50.5117 33.504,0 44.504,28.5117 44.504,50.5117 V 181.5 h 24 V 69.2617 C 255.129,28.2617 225.375,0 186.625,0 c -38.75,0 -68.5,28.2617 -68.5,69.2617 V 181.5 h 24.004"
         style="fill:#4f4f57;fill-opacity:1;fill-rule:nonzero;stroke:none"
         id="path12" />
      <path
         d="m 348.125,181.5 h 31.504 l 97.5,-145.4883 h 0.5 V 181.5 h 23.996 V 4.51172 h -30.496 l -98.5,145.52728 h -0.5 V 4.51172 H 348.125 V 181.5"
         style="fill:#4f4f57;fill-opacity:1;fill-rule:nonzero;stroke:none"
         id="path14" />
      <path
         d="m 597.875,181.5 h 24 V 4.51172 h -24 V 181.5"
         style="fill:#4f4f57;fill-opacity:1;fill-rule:nonzero;stroke:none"
         id="path16" />
      <path
         d="m 693.879,181.5 h 27.746 l 52.004,-144 h 0.496 l 54,144 h 26.25 L 784.625,4.51172 h -22.5 L 693.879,181.5"
         style="fill:#4f4f57;fill-opacity:1;fill-rule:nonzero;stroke:none"
         id="path18" />
      <path
         d="M 926.371,181.5 H 1040.63 V 159 h -90.255 v -52.75 h 84.005 V 83.75 H 950.375 V 27.0117 h 94.745 V 4.51172 H 926.371 V 181.5"
         style="fill:#4f4f57;fill-opacity:1;fill-rule:nonzero;stroke:none"
         id="path20" />
      <path
         d="m 1153.87,103.512 h 31.5 c 19.01,0 38.01,4.5 38.01,28.5 0,24 -19,28.5 -38.01,28.5 h -31.5 z m -24.01,77.988 h 62.27 c 45.23,0 56.74,-27.238 56.74,-49.488 0,-22.5 -16.74,-43.7503 -43.5,-46.762 l 50.26,-80.73828 h -30 l -45,77.98828 h -26.76 V 4.51172 h -24.01 V 181.5"
         style="fill:#4f4f57;fill-opacity:1;fill-rule:nonzero;stroke:none"
         id="path22" />
      <path
         d="m 1338.61,41.5 c 8.52,-12.9883 23.27,-19 37.5,-19 15.77,0 35.26,10 35.26,29.5117 0,40.7383 -87.25,15.4883 -87.25,84.4883 0,20.762 17.5,49.512 60,49.512 19.26,0 37.76,-4 51,-20.25 l -19.49,-17.75 c -6,9.25 -17.76,15.5 -31.51,15.5 -26.5,0 -34.49,-15.973 -34.49,-27.012 0,-44.7383 87.25,-17.988 87.25,-81.7383 0,-34.25 -27.5,-54.7617 -61.51,-54.7617 -22.75,0 -44.49,7.75 -56.5,24.5117 L 1338.61,41.5"
         style="fill:#4f4f57;fill-opacity:1;fill-rule:nonzero;stroke:none"
         id="path24" />
      <path
         d="m 1523.13,181.5 h 23.95 V 4.51172 h -23.95 V 181.5"
         style="fill:#4f4f57;fill-opacity:1;fill-rule:nonzero;stroke:none"
         id="path26" />
      <path
         d="m 1680.37,159 h -56.99 v 22.5 h 137.99 V 159 h -56.99 V 4.51172 h -24.01 V 159"
         style="fill:#4f4f57;fill-opacity:1;fill-rule:nonzero;stroke:none"
         id="path28" />
      <path
         d="m 1879.38,80 -67.02,101.5 h 30.77 l 48.24,-77.75 49.74,77.75 h 29.26 L 1903.33,80 V 4.51172 h -23.95 V 80"
         style="fill:#4f4f57;fill-opacity:1;fill-rule:nonzero;stroke:none"
         id="path30" />
      <path
         d="m 209.254,265.293 -48.336,146.602 h -0.543 V 265.293 h 48.879"
         style="fill:#810e29;fill-opacity:1;fill-rule:nonzero;stroke:none"
         id="path32" />
      <path
         d="m 292.129,265.293 v 146.602 h -0.524 L 241.379,265.293 h 50.75"
         style="fill:#810e29;fill-opacity:1;fill-rule:nonzero;stroke:none"
         id="path34" />
      <path
         d="M 742.211,265.293 693.879,411.895 H 693.34 V 265.293 h 48.871"
         style="fill:#810e29;fill-opacity:1;fill-rule:nonzero;stroke:none"
         id="path36" />
      <path
         d="m 825.113,265.293 v 146.602 h -0.539 L 774.336,265.293 h 50.777"
         style="fill:#810e29;fill-opacity:1;fill-rule:nonzero;stroke:none"
         id="path38" />
      <path
         d="m 1280.83,377.344 h 24.87 c 15.38,0 35.37,0.527 35.37,21.328 0,19.16 -17.28,22.129 -32.69,22.129 h -27.55 z m 60.79,-112.051 -39.96,76.414 h -20.83 v -76.414 h 60.79"
         style="fill:#810e29;fill-opacity:1;fill-rule:nonzero;stroke:none"
         id="path40" />
      <path
         d="m 1680.7,400.828 -23.2,-59.402 h 46.71 z m 54.3,-135.535 -16.46,40.496 h -74.29 l -15.92,-40.496 H 1735"
         style="fill:#810e29;fill-opacity:1;fill-rule:nonzero;stroke:none"
         id="path42" />
      <path
         d="m 1018.83,265.137 c -41.385,12.109 -68.994,46.902 -68.994,95.73 0,61.301 43.465,100.442 103.154,100.442 59.67,0 103.13,-39.141 103.13,-100.442 0,-48.855 -27.62,-83.64 -69.04,-95.742 l 151.67,0.168 v 191.16 h 73.96 c 39.17,0 72.08,-13.496 72.08,-58.035 0,-26.758 -14.29,-47.539 -41.29,-52.402 l 48.58,-80.723 h 75.09 v 191.16 h 42.08 v -191.16 h 72.66 l 82.62,191.16 h 34.81 l 83.16,-191.16 h 74.79 v 191.16 h 42.12 V 304.16 h 78.05 v -38.867 l 40.37,-0.254 v 935.121 l -152.67,-0.22 -686.25,-116.81 -123.66,-18.09 -30.12,-15.08 L 934.668,1016.8 771.871,974.59 575.879,923.328 H 491.461 L 340.707,911.281 265.336,893.184 195.082,880.703 85.4922,883.535 0,872.078 9.04297,844.949 48.2539,751.465 71.3242,729.551 57.293,700.215 66.5273,639.16 90.6367,590.918 81.6055,530.43 l -9.0586,-54.27 2.8359,-53.328 2.5352,-66.445 -15.1172,-56.68 -23.8867,-34.531 79.3399,0.117 v 191.16 h 63.711 l 44.027,-124.746 h 0.535 l 44.274,124.746 h 63.453 v -191.16 h 94.496 v 191.16 H 558.629 V 417.559 H 470.875 V 381.934 H 553.75 V 343.047 H 470.875 V 304.16 h 92.617 v -38.867 h 87.742 v 191.16 h 63.723 l 44.004,-124.746 h 0.543 l 44.281,124.746 h 63.434 v -191.16 l 151.611,-0.156"
         style="fill:#810e29;fill-opacity:1;fill-rule:nonzero;stroke:none"
         id="path44" />
      <path
         d="m 1052.99,299.297 c 35.92,0 59.38,25.945 59.38,61.57 0,35.637 -23.46,61.555 -59.38,61.555 -35.91,0 -59.404,-25.918 -59.404,-61.555 0,-35.625 23.494,-61.57 59.404,-61.57"
         style="fill:#810e29;fill-opacity:1;fill-rule:nonzero;stroke:none"
         id="path46" />
      <path
         d="m 118.168,456.602 h 63.719 l 44.019,-124.727 h 0.543 l 44.266,124.727 h 63.457 V 265.457 h -42.125 v 146.594 h -0.543 L 241.293,265.457 h -32.121 l -48.336,146.594 h -0.543 V 265.457 h -42.125 v 191.145"
         style="fill:#ffffff;fill-opacity:1;fill-rule:nonzero;stroke:none"
         id="path48" />
      <path
         d="M 428.668,456.602 H 558.547 V 417.723 H 470.793 V 382.09 h 82.879 v -38.887 h -82.879 v -38.879 h 92.613 V 265.457 H 428.668 v 191.145"
         style="fill:#ffffff;fill-opacity:1;fill-rule:nonzero;stroke:none"
         id="path50" />
      <path
         d="m 651.152,456.602 h 63.719 l 44.008,-124.727 h 0.539 l 44.281,124.727 h 63.453 V 265.457 h -42.117 v 146.594 h -0.543 L 774.258,265.457 h -32.129 l -48.328,146.594 h -0.543 V 265.457 h -42.106 v 191.145"
         style="fill:#ffffff;fill-opacity:1;fill-rule:nonzero;stroke:none"
         id="path52" />
      <path
         d="m 1052.91,299.461 c 35.88,0 59.38,25.93 59.38,61.574 0,35.625 -23.5,61.543 -59.38,61.543 -35.91,0 -59.41,-25.918 -59.41,-61.543 0,-35.644 23.5,-61.574 59.41,-61.574 z m -34.08,-34.199 c -41.424,12.109 -69.072,46.906 -69.072,95.773 0,61.297 43.484,100.43 103.152,100.43 59.67,0 103.13,-39.133 103.13,-100.43 0,-49.23 -28.04,-84.16 -70,-96.027 l -67.21,0.254"
         style="fill:#ffffff;fill-opacity:1;fill-rule:nonzero;stroke:none"
         id="path54" />
      <path
         d="m 1280.78,377.5 h 24.85 c 15.37,0 35.37,0.535 35.37,21.328 0,19.168 -17.29,22.129 -32.68,22.129 h -27.54 z m -42.12,79.102 h 73.97 c 39.16,0 72.11,-13.477 72.11,-58.047 0,-26.731 -14.32,-47.52 -41.32,-52.383 L 1392,265.457 h -50.47 l -39.96,76.418 h -20.79 v -76.418 h -42.12 v 191.145"
         style="fill:#ffffff;fill-opacity:1;fill-rule:nonzero;stroke:none"
         id="path56" />
      <path
         d="m 1467.08,456.602 h 42.12 V 265.457 h -42.12 v 191.145"
         style="fill:#ffffff;fill-opacity:1;fill-rule:nonzero;stroke:none"
         id="path58" />
      <path
         d="m 1680.63,400.996 -23.22,-59.414 h 46.71 z m -16.18,55.606 h 34.8 l 83.16,-191.145 h -47.5 l -16.46,40.481 h -74.25 l -15.95,-40.481 h -46.42 l 82.62,191.145"
         style="fill:#ffffff;fill-opacity:1;fill-rule:nonzero;stroke:none"
         id="path60" />
      <path
         d="m 1857.24,456.602 h 42.1 V 304.324 h 78.03 v -38.867 h -120.13 v 191.145"
         style="fill:#ffffff;fill-opacity:1;fill-rule:nonzero;stroke:none"
         id="path62" />
    </g>
  </g>
</svg>
